<?xml version="1.0" encoding="utf-8"?>
<!-- Generator: Adobe Illustrator 23.0.6, SVG Export Plug-In . SVG Version: 6.00 Build 0)  -->
<svg version="1.1" id="_x2014_ÎÓÈ_x5F_1" xmlns="http://www.w3.org/2000/svg" xmlns:xlink="http://www.w3.org/1999/xlink"
	 x="0px" y="0px" viewBox="0 0 26 26" style="enable-background:new 0 0 26 26;" xml:space="preserve">
<style type="text/css">
	.st0{fill:#6F6F6E;}
	.st1{fill:#FFFFFF;}
	.st2{fill:#E9A822;}
</style>
<g>
	<g>
		<path class="st0" d="M21.05,9.05C21.05,4.6,17.45,1,13,1S4.95,4.6,4.95,9.05c0,1.39,0.35,2.71,0.98,3.85h0l0.03,0.04
			c0.06,0.11,0.12,0.22,0.19,0.33L13,25l6.85-11.71h0C20.61,12.06,21.05,10.6,21.05,9.05z M13,14.29c-3.05,0-5.52-2.47-5.52-5.52
			c0-3.05,2.47-5.52,5.52-5.52c3.05,0,5.52,2.47,5.52,5.52C18.52,11.82,16.05,14.29,13,14.29z"/>
	</g>
	<circle class="st1" cx="13.01" cy="8.93" r="7.62"/>
	<g>
		<circle class="st2" cx="13.01" cy="8.93" r="7.34"/>
		<g>
			<g>
				<path class="st1" d="M17.67,8.59c0-0.05,0.01-0.11,0.01-0.15c0-0.05,0-0.09,0-0.12c0-0.08,0-0.21,0-0.38V6.77h-0.14
					c-0.06,0-0.14,0-0.22,0.01c-0.08,0.01-0.17,0.01-0.24,0.02l0.02-0.36h1.19c0.19,0,0.34-0.01,0.46-0.03l-0.02,0.36h-0.59v1.17
					c0,0.13,0,0.23,0,0.31c0,0.08,0,0.17,0.01,0.29l0,0.05H17.67z M15.65,8.59c0.01-0.1,0.01-0.19,0.01-0.27c0-0.08,0-0.18,0-0.29
					V7.05c0-0.12-0.01-0.23-0.02-0.33c-0.01-0.1-0.03-0.19-0.05-0.28h1.23l0.02,0.35c-0.08,0-0.17-0.01-0.27-0.01
					c-0.1,0-0.21,0-0.32,0h-0.16v0.52h0.16c0.25,0,0.43-0.01,0.56-0.02l-0.02,0.36c-0.08-0.01-0.16-0.01-0.23-0.01
					c-0.08,0-0.18,0-0.31,0h-0.16v0.63h0.16c0.12,0,0.24,0,0.34-0.01s0.2-0.02,0.28-0.03l-0.03,0.38H15.65z M15.16,6.83L15.16,6.83
					c-0.07-0.02-0.14-0.04-0.21-0.05c-0.06-0.01-0.14-0.02-0.21-0.02c-0.1,0-0.18,0.02-0.24,0.05c-0.07,0.03-0.1,0.07-0.1,0.13
					c0,0.06,0.03,0.11,0.08,0.16c0.05,0.05,0.13,0.1,0.24,0.16l0.02,0.01c0.09,0.05,0.17,0.1,0.24,0.14
					c0.06,0.04,0.13,0.09,0.19,0.14c0.06,0.06,0.11,0.12,0.14,0.2c0.04,0.08,0.05,0.16,0.05,0.26c0,0.09-0.02,0.18-0.05,0.26
					c-0.04,0.08-0.09,0.14-0.16,0.2c-0.14,0.12-0.32,0.18-0.55,0.18c-0.12,0-0.23-0.01-0.33-0.03c-0.1-0.02-0.19-0.05-0.27-0.07
					l-0.01,0V8.14c0.11,0.04,0.22,0.07,0.3,0.09c0.09,0.02,0.18,0.03,0.27,0.03c0.1,0,0.18-0.02,0.25-0.05
					c0.06-0.03,0.1-0.08,0.1-0.15c0-0.07-0.03-0.13-0.09-0.18c-0.06-0.05-0.15-0.11-0.28-0.19c-0.06-0.03-0.1-0.05-0.11-0.07
					c-0.07-0.04-0.13-0.08-0.18-0.13c-0.05-0.04-0.1-0.09-0.14-0.14c-0.04-0.05-0.08-0.11-0.1-0.17c-0.03-0.06-0.04-0.13-0.04-0.21
					c0-0.18,0.07-0.33,0.21-0.43c0.14-0.11,0.32-0.16,0.56-0.16c0.08,0,0.15,0,0.21,0.01c0.06,0.01,0.12,0.02,0.19,0.04
					c0.03,0.01,0.04,0.01,0.05,0.01V6.83z M12.58,7.37L12.58,7.37c0.05,0,0.08,0.01,0.1,0.01c0.14,0,0.26-0.03,0.35-0.1
					c0.09-0.06,0.14-0.15,0.14-0.25c0-0.09-0.03-0.17-0.09-0.22c-0.06-0.05-0.14-0.08-0.24-0.08c-0.06,0-0.14,0.01-0.23,0.02
					c-0.01,0-0.02,0-0.02,0V7.37z M12.11,8.59c0.01-0.1,0.01-0.19,0.01-0.27c0-0.08,0-0.18,0-0.29V7.05c0-0.12-0.01-0.23-0.02-0.33
					c-0.01-0.1-0.03-0.19-0.05-0.28h0.18c0.05,0,0.13,0,0.23-0.01c0.03,0,0.06-0.01,0.08-0.01c0.11-0.01,0.22-0.02,0.3-0.02
					c0.24,0,0.42,0.05,0.55,0.16c0.13,0.11,0.2,0.26,0.2,0.46c0,0.08-0.02,0.16-0.05,0.23c-0.03,0.07-0.08,0.12-0.13,0.17
					c-0.05,0.05-0.1,0.08-0.16,0.11c-0.05,0.03-0.1,0.05-0.15,0.06c0.07,0.12,0.13,0.22,0.18,0.31c0.05,0.09,0.11,0.17,0.16,0.24
					c0.05,0.07,0.11,0.14,0.16,0.21s0.13,0.14,0.21,0.23h-0.57c-0.08-0.09-0.16-0.19-0.23-0.31c-0.07-0.11-0.15-0.26-0.25-0.44
					c-0.05-0.08-0.08-0.14-0.1-0.18l-0.11,0.01v0.36c0,0.07,0,0.16,0,0.25c0,0.09,0.01,0.19,0.01,0.3v0.01H12.11z M10.4,7.78
					c0.03,0.1,0.06,0.18,0.11,0.25c0.05,0.07,0.11,0.13,0.18,0.17c0.07,0.04,0.14,0.06,0.22,0.06c0.08,0,0.15-0.02,0.22-0.06
					c0.07-0.04,0.12-0.1,0.17-0.17c0.05-0.07,0.08-0.16,0.11-0.25c0.03-0.1,0.04-0.2,0.04-0.3c0-0.22-0.05-0.39-0.14-0.52
					c-0.1-0.13-0.23-0.19-0.39-0.19c-0.17,0-0.31,0.07-0.4,0.2c-0.09,0.13-0.14,0.3-0.14,0.52C10.36,7.59,10.37,7.69,10.4,7.78
					 M10.5,8.55c-0.12-0.06-0.23-0.14-0.32-0.25c-0.09-0.11-0.16-0.23-0.21-0.37C9.93,7.79,9.91,7.64,9.91,7.48
					c0-0.16,0.02-0.31,0.07-0.44c0.05-0.13,0.11-0.25,0.2-0.35c0.09-0.1,0.19-0.17,0.32-0.22s0.26-0.08,0.41-0.08
					c0.15,0,0.28,0.03,0.41,0.08c0.12,0.05,0.23,0.13,0.31,0.23c0.09,0.1,0.15,0.21,0.2,0.35c0.05,0.13,0.07,0.28,0.07,0.43
					c0,0.16-0.02,0.31-0.07,0.45c-0.05,0.14-0.11,0.26-0.2,0.37c-0.09,0.11-0.19,0.19-0.31,0.25c-0.12,0.06-0.26,0.09-0.4,0.09
					C10.76,8.64,10.63,8.61,10.5,8.55 M8.41,8.2c0.06,0.02,0.13,0.02,0.2,0.02c0.22,0,0.38-0.05,0.5-0.14
					c0.11-0.1,0.17-0.25,0.17-0.47c0-0.27-0.07-0.47-0.21-0.62C9,6.92,8.92,6.87,8.84,6.84C8.75,6.8,8.66,6.79,8.57,6.79
					c-0.03,0-0.06,0-0.11,0.01l-0.05,0V8.2z M7.94,8.59c0.01-0.1,0.01-0.19,0.01-0.27c0-0.08,0-0.18,0-0.29V7.05
					c0-0.12-0.01-0.23-0.02-0.33c-0.01-0.1-0.03-0.19-0.05-0.28h0.2c0.03,0,0.09,0,0.16-0.01c0.04,0,0.06-0.01,0.06-0.01
					C8.4,6.41,8.48,6.41,8.54,6.41c0.14,0,0.28,0.02,0.42,0.07C9.1,6.52,9.23,6.59,9.34,6.68C9.46,6.78,9.55,6.9,9.62,7.06
					c0.07,0.15,0.1,0.34,0.1,0.55c0,0.18-0.03,0.33-0.08,0.45C9.58,8.19,9.5,8.3,9.4,8.38C9.3,8.45,9.19,8.51,9.07,8.55
					C8.94,8.59,8.81,8.6,8.67,8.6c-0.08,0-0.17,0-0.26-0.01c-0.12,0-0.2-0.01-0.26-0.01H7.94z"/>
				<path class="st1" d="M11.41,6.11c0-0.03,0-0.06,0.01-0.09c0-0.03,0-0.05,0-0.07c0-0.05,0-0.12,0-0.22V5.04h-0.09
					c-0.04,0-0.08,0-0.13,0c-0.05,0-0.1,0.01-0.14,0.01l0.01-0.21h0.71c0.11,0,0.2-0.01,0.27-0.02l-0.01,0.21h-0.35v0.69
					c0,0.08,0,0.14,0,0.18c0,0.04,0,0.1,0.01,0.17l0,0.03H11.41z M10.61,6.11c0-0.06,0.01-0.11,0.01-0.16c0-0.05,0-0.11,0-0.17v-0.5
					c0-0.09,0-0.17-0.01-0.24c-0.01-0.07-0.01-0.14-0.03-0.21h0.31c0,0.03,0,0.07,0,0.14c0,0.09-0.01,0.16-0.01,0.22v0.47
					c0,0.06,0,0.13,0.01,0.22c0.01,0.08,0.02,0.16,0.03,0.23H10.61z M10.32,5.07L10.32,5.07c-0.04-0.01-0.08-0.02-0.12-0.03
					c-0.04-0.01-0.08-0.01-0.13-0.01c-0.06,0-0.11,0.01-0.14,0.03C9.89,5.08,9.87,5.1,9.87,5.14c0,0.04,0.02,0.07,0.05,0.09
					C9.95,5.26,10,5.29,10.06,5.33l0.01,0c0.06,0.03,0.1,0.06,0.14,0.08c0.04,0.02,0.07,0.05,0.11,0.09
					c0.04,0.03,0.06,0.07,0.09,0.12c0.02,0.05,0.03,0.1,0.03,0.15c0,0.05-0.01,0.11-0.03,0.15c-0.02,0.05-0.05,0.09-0.09,0.12
					c-0.08,0.07-0.19,0.11-0.33,0.11c-0.07,0-0.13-0.01-0.19-0.02C9.73,6.11,9.68,6.1,9.63,6.08l-0.01,0V5.85
					C9.69,5.87,9.75,5.89,9.81,5.9c0.05,0.01,0.11,0.02,0.16,0.02c0.06,0,0.11-0.01,0.15-0.03c0.04-0.02,0.06-0.05,0.06-0.09
					c0-0.04-0.02-0.07-0.05-0.1c-0.04-0.03-0.09-0.07-0.17-0.11C9.91,5.56,9.89,5.55,9.88,5.54C9.84,5.52,9.8,5.49,9.77,5.47
					C9.74,5.45,9.71,5.42,9.68,5.39c-0.03-0.03-0.05-0.06-0.06-0.1C9.61,5.25,9.6,5.21,9.6,5.16c0-0.11,0.04-0.19,0.12-0.26
					c0.08-0.06,0.19-0.1,0.33-0.1c0.05,0,0.09,0,0.13,0.01c0.03,0,0.07,0.01,0.11,0.02c0.02,0,0.03,0.01,0.03,0.01V5.07z M9.1,6.11
					c0-0.06,0.01-0.11,0.01-0.16c0-0.05,0-0.11,0-0.17v-0.5c0-0.09,0-0.17-0.01-0.24C9.1,4.97,9.09,4.91,9.08,4.84h0.31
					c0,0.03,0,0.07,0,0.14c0,0.09-0.01,0.16-0.01,0.22v0.47c0,0.06,0,0.13,0.01,0.22C9.4,5.97,9.41,6.04,9.42,6.11H9.1z M8.23,6.14
					C8.22,6.08,8.2,6,8.18,5.93C8.16,5.85,8.13,5.77,8.11,5.68L8.04,5.45C8,5.33,7.96,5.23,7.93,5.13c-0.04-0.1-0.07-0.19-0.11-0.28
					l0.3-0.02c0.02,0.06,0.04,0.13,0.07,0.22c0.03,0.09,0.05,0.18,0.08,0.28c0.03,0.09,0.05,0.19,0.07,0.28
					C8.36,5.7,8.37,5.77,8.38,5.82h0l0.15-0.5c0.02-0.07,0.04-0.15,0.06-0.23C8.61,5,8.62,4.93,8.63,4.85l0.3-0.02
					C8.92,4.86,8.9,4.91,8.87,4.99C8.85,5.07,8.82,5.14,8.8,5.2C8.79,5.26,8.77,5.32,8.75,5.37L8.67,5.65
					C8.66,5.67,8.65,5.72,8.63,5.79C8.61,5.86,8.59,5.92,8.57,5.97C8.56,6.01,8.55,6.06,8.54,6.1L8.23,6.14z"/>
				<path class="st1" d="M18.88,10.32c-0.66-0.33-1.48-0.85-2.52-0.93c-1.45-0.11-3.16,0.48-4.66,0.38
					c-0.4-0.03-0.88-0.13-1.24-0.26c-0.36-0.13-0.76-0.43-1.04-0.43C8.84,9.07,8.57,9.69,8.28,9.94C8.06,9.94,7.9,9.87,7.76,9.77
					C7.88,9.55,8.16,9.4,8.4,9.22C8.7,8.99,8.96,8.7,9.41,8.64c1.09-0.14,1.58,0.83,2.49,0.93c0.7,0.07,1.43-0.18,2.14-0.32
					c0.71-0.14,1.46-0.29,2.17-0.29C17.4,8.96,18.3,9.56,18.88,10.32"/>
				<path class="st1" d="M19.08,10.7c-1.51-0.23-3.26-0.58-5.15-0.58c-1.08,0-2.28,0.09-3.39,0.14c-1.11,0.06-2.26,0.12-3.07-0.38
					c0.9,0.39,1.98,0.27,3.1,0.17C13.52,9.81,16.83,9.63,19.08,10.7"/>
				<path class="st1" d="M7.3,9.96c0.02-0.01,0.03,0.01,0.03,0.03c1.62,0.84,4.07,0.29,6.25,0.29c2.26,0,4.38,0.23,5.94,0.93
					c-1.69-0.23-3.62-0.66-5.88-0.64c-0.99,0.01-2.06,0.13-3.16,0.14C9.25,10.73,7.7,10.79,7.3,9.96"/>
			</g>
			<g>
				<path class="st1" d="M10.31,13.44H9.98v-0.9c0-0.1,0-0.2,0.01-0.32H9.98c-0.02,0.09-0.03,0.16-0.05,0.2l-0.35,1.02H9.31
					l-0.36-1.01c-0.01-0.03-0.03-0.1-0.05-0.21H8.89c0.01,0.15,0.01,0.28,0.01,0.39v0.83H8.6v-1.5h0.5l0.31,0.89
					c0.02,0.07,0.04,0.14,0.05,0.21h0.01c0.02-0.08,0.04-0.16,0.06-0.22l0.31-0.89h0.48V13.44z"/>
				<path class="st1" d="M11.55,13.44h-0.9v-1.5h0.87v0.28h-0.53v0.33h0.49v0.27h-0.49v0.34h0.56V13.44z"/>
				<path class="st1" d="M13.5,13.44h-0.33v-0.9c0-0.1,0-0.2,0.01-0.32h-0.01c-0.02,0.09-0.03,0.16-0.05,0.2l-0.35,1.02H12.5
					l-0.36-1.01c-0.01-0.03-0.03-0.1-0.05-0.21h-0.01c0.01,0.15,0.01,0.28,0.01,0.39v0.83h-0.3v-1.5h0.5l0.31,0.89
					c0.02,0.07,0.04,0.14,0.05,0.21h0.01c0.02-0.08,0.04-0.16,0.06-0.22l0.31-0.89h0.48V13.44z"/>
				<path class="st1" d="M13.85,13.44v-1.5h0.55c0.17,0,0.3,0.03,0.39,0.09c0.09,0.06,0.14,0.15,0.14,0.26
					c0,0.08-0.03,0.15-0.08,0.21c-0.05,0.06-0.12,0.1-0.21,0.13v0c0.11,0.01,0.19,0.05,0.26,0.12c0.06,0.07,0.1,0.15,0.1,0.24
					c0,0.14-0.05,0.25-0.15,0.33s-0.23,0.12-0.4,0.12H13.85z M14.18,12.19v0.36h0.15c0.07,0,0.12-0.02,0.16-0.05
					c0.04-0.03,0.06-0.08,0.06-0.14c0-0.11-0.08-0.17-0.25-0.17H14.18z M14.18,12.79v0.4h0.18c0.08,0,0.14-0.02,0.18-0.05
					c0.04-0.04,0.07-0.09,0.07-0.15c0-0.06-0.02-0.11-0.07-0.14c-0.04-0.03-0.1-0.05-0.18-0.05H14.18z"/>
				<path class="st1" d="M16.12,13.44h-0.9v-1.5h0.87v0.28h-0.53v0.33h0.49v0.27h-0.49v0.34h0.56V13.44z"/>
				<path class="st1" d="M17.62,13.44h-0.39L17,13.05c-0.02-0.03-0.03-0.06-0.05-0.08c-0.02-0.02-0.03-0.04-0.05-0.06
					c-0.02-0.02-0.03-0.03-0.05-0.04c-0.02-0.01-0.04-0.01-0.06-0.01H16.7v0.57h-0.34v-1.5h0.54c0.36,0,0.55,0.14,0.55,0.41
					c0,0.05-0.01,0.1-0.02,0.14c-0.02,0.04-0.04,0.08-0.07,0.12c-0.03,0.04-0.06,0.07-0.11,0.09c-0.04,0.03-0.09,0.05-0.14,0.06v0
					c0.02,0.01,0.04,0.02,0.06,0.03c0.02,0.02,0.04,0.03,0.06,0.05c0.02,0.02,0.04,0.04,0.06,0.07c0.02,0.02,0.03,0.05,0.05,0.07
					L17.62,13.44z M16.7,12.19v0.42h0.15c0.07,0,0.13-0.02,0.17-0.06c0.04-0.04,0.07-0.1,0.07-0.16c0-0.13-0.08-0.2-0.24-0.2H16.7z"
					/>
			</g>
		</g>
	</g>
</g>
</svg>
