<?xml version="1.0" encoding="utf-8"?>
<!-- Generator: Adobe Illustrator 22.0.1, SVG Export Plug-In . SVG Version: 6.00 Build 0)  -->
<svg version="1.1" id="_x2014_ÎÓÈ_x5F_1" xmlns="http://www.w3.org/2000/svg" xmlns:xlink="http://www.w3.org/1999/xlink"
	 x="0px" y="0px" viewBox="0 0 13 19.25" style="enable-background:new 0 0 13 19.25;" xml:space="preserve">
<style type="text/css">
	.st0{fill:#6F6F6E;}
	.st1{fill:#FFFFFF;}
	.st2{fill:#E75300;}
	.st3{fill:#333333;}
	.st4{fill:#FFFFFF;stroke:#E75300;stroke-width:0.2223;stroke-miterlimit:10;}
</style>
<g>
	<g>
		<path class="st0" d="M25,13.3c0-6.6-5.4-12-12-12S1,6.7,1,13.3c0,2.1,0.5,4,1.5,5.7l0,0l0,0.1c0.1,0.2,0.2,0.3,0.3,0.5L13,37.1
			l10.2-17.5l0,0C24.4,17.8,25,15.7,25,13.3z M13,21.2c-4.5,0-8.2-3.7-8.2-8.2c0-4.6,3.7-8.3,8.2-8.3s8.2,3.7,8.2,8.2
			S17.5,21.2,13,21.2z"/>
	</g>
	<g>
		<circle class="st1" cx="7" cy="7" r="5"/>
	</g>
</g>
<g>
	<circle class="st2" cx="7.5" cy="6.6" r="5.35"/>
	<path class="st1" d="M5.4,14v1.3h0.4h0.5h0.8h1.1h0.5h0.7h1.1h0.7c0.1,0,0.3,0,0.4,0c0.1-0.1,0.3-0.1,0.4-0.2c2.4,0,4.8,0,7.1,0
		c0.2,0.1,0.4,0.1,0.6,0.2h0.9h0.4h0.4V14H5.4z"/>
	<g id="XMLID_3395_">
		<path id="XMLID_3397_" class="st1" d="M6.3,15.9c0.1-0.5,0.3-1.1,0.4-1.6c1.6,0,3.1,0,4.7,0c0.1,0.5,0.3,1.1,0.4,1.6
			C10,15.9,8.1,15.9,6.3,15.9z"/>
		<path id="XMLID_3396_" class="st1" d="M6.8,14.7c1.5,0,3,0,4.5,0c0.1,0.4,0.2,0.8,0.3,1.3c0.1,0,0.1,0,0.2,0
			c-0.1-0.5-0.3-1.1-0.4-1.6c-1.6,0-3.1,0-4.7,0c-0.1,0.5-0.3,1.1-0.4,1.6c0.1,0,0.1,0,0.2,0C6.6,15.5,6.8,15.1,6.8,14.7z"/>
	</g>
	<g id="XMLID_2904_">
		<path class="st1" d="M16.7,9.1c-3.1,0-6.3,0-9.5,0c-1,1-2,1.9-3,2.8c0,1.3,0,2.5,0.1,3.8c0.3,0,0.5,0,0.8,0c0.4-0.4,0.7-0.8,1-1.3
			c0.4,0,1,0,1.4,0c3.1,0,6.2,0,9.3,0C16.7,12.7,16.7,10.9,16.7,9.1z"/>
	</g>
	<path class="st1" d="M15.5,15.9h-2.3c-0.3,0-0.6-0.3-0.6-0.6l0,0c0-0.3,0.3-0.6,0.6-0.6h2.3c0.3,0,0.6,0.3,0.6,0.6l0,0
		C16,15.6,15.8,15.9,15.5,15.9z"/>
	<path id="XMLID_1070_" class="st1" d="M20.2,9.4c-0.6-0.2-1.3-0.2-2.5-0.2c-0.2,0-0.5,0-0.8,0v0.4h3.7C20.6,9.5,20.5,9.4,20.2,9.4z
		"/>
	<path class="st1" d="M21,9.8c-0.1-0.1-0.2-0.2-0.3-0.3H17v4.6c1.6,0,3.1,0,4.7,0v-2.4C21.5,11.1,21.3,10.5,21,9.8z"/>
	<path class="st3" d="M21.6,15.5c0.1,0,0.1-0.1,0.1-0.1v-1C21.7,14.8,21.7,15.1,21.6,15.5z"/>
	<path class="st1" d="M17.4,14.3c-0.2,0-0.4,0.2-0.4,0.4V16c0.4,0,0.8,0,1.1,0c0-0.1,0-0.8,0.6-1.1c0.4-0.3,1.1-0.2,1.5,0.1
		c0.4,0.4,0.4,1,0.4,1c0.4,0,0.8,0,1.1,0v-1.7L17.4,14.3L17.4,14.3z"/>
	<path class="st2" d="M20.6,10c-0.4,0-0.8,0-1.3,0c0,0.5,0,1.1,0,1.6c0.6,0,1.2,0,1.8,0"/>
	<path id="XMLID_28_" class="st2" d="M18.5,9.8c0.1,0,0.1,0.1,0.1,0.2v1.9c0,0.1-0.1,0.2-0.1,0.2h-0.6c-0.1,0-0.1-0.1-0.1-0.2V10
		c0-0.1,0.1-0.2,0.1-0.2C17.9,9.8,18.5,9.8,18.5,9.8z"/>
	<path class="st2" d="M14.1,11.6c0-0.2-0.1-0.4-0.4-0.4c-0.1,0-0.1,0-0.2,0.1c-0.1-0.8-0.8-1.3-1.7-1.3c-1,0-1.7,0.8-1.7,1.7
		c0,1,0.8,1.7,1.7,1.7c0.3,0,0.6-0.1,0.8-0.3l-0.3-0.3c-0.1,0.1-0.3,0.1-0.6,0.1c-0.7,0-1.3-0.6-1.3-1.3s0.6-1.3,1.3-1.3
		c0.6,0,1.1,0.4,1.2,1c-0.1-0.1-0.1-0.1-0.2-0.1c-0.2,0-0.4,0.1-0.4,0.4c0,0.2,0.1,0.3,0.3,0.5c0.3,0.3,0.4,0.5,0.4,0.5
		s0.2-0.2,0.4-0.5C14,11.9,14.1,11.8,14.1,11.6L14.1,11.6z"/>
	<g>
		<ellipse id="XMLID_1_" class="st4" cx="3.35" cy="8.05" rx="0.55" ry="0.6"/>
		<ellipse id="XMLID_2_" class="st2" cx="7.7" cy="16.1" rx="0.7" ry="0.7"/>
	</g>
	<g>
		<ellipse id="XMLID_4_" class="st4" cx="5.2" cy="8.05" rx="0.55" ry="0.6"/>
		<ellipse id="XMLID_3_" class="st2" cx="5.2" cy="8.05" rx="0.35" ry="0.35"/>
	</g>
	<g>
		<ellipse id="XMLID_6_" class="st4" cx="9.7" cy="8" rx="0.55" ry="0.6"/>
		<ellipse id="XMLID_5_" class="st2" cx="9.7" cy="8" rx="0.35" ry="0.35"/>
	</g>
</g>
</svg>
