<?xml version="1.0" encoding="utf-8"?>
<!-- Generator: Adobe Illustrator 23.0.6, SVG Export Plug-In . SVG Version: 6.00 Build 0)  -->
<svg version="1.1" id="_x2014_ÎÓÈ_x5F_1" xmlns="http://www.w3.org/2000/svg" xmlns:xlink="http://www.w3.org/1999/xlink"
	 x="0px" y="0px" viewBox="0 0 26 26" style="enable-background:new 0 0 26 26;" xml:space="preserve">
<style type="text/css">
	.st0{fill:#E9A822;}
	.st1{fill:#FFFFFF;}
</style>
<g>
	<circle class="st0" cx="13" cy="13" r="12"/>
	<g>
		<g>
			<path class="st1" d="M20.62,12.45c0.01-0.09,0.01-0.17,0.01-0.25c0-0.08,0-0.14,0-0.2c0-0.13,0-0.34,0-0.62v-1.9h-0.24
				c-0.11,0-0.23,0-0.37,0.01c-0.14,0.01-0.27,0.02-0.39,0.04l0.03-0.59h1.95c0.3,0,0.55-0.02,0.75-0.05l-0.03,0.59h-0.96v1.9
				c0,0.21,0,0.38,0,0.51c0,0.12,0.01,0.28,0.01,0.48l0,0.08H20.62z M17.31,12.45c0.01-0.16,0.02-0.3,0.02-0.43
				c0-0.13,0-0.29,0-0.47V9.93c0-0.19-0.01-0.37-0.02-0.53c-0.02-0.16-0.04-0.32-0.07-0.46h2.02l0.03,0.57
				c-0.12-0.01-0.27-0.01-0.44-0.02c-0.17,0-0.34-0.01-0.52-0.01h-0.26v0.85h0.26c0.4,0,0.71-0.01,0.92-0.02l-0.02,0.59
				c-0.13-0.01-0.26-0.02-0.38-0.02c-0.12,0-0.29,0-0.51,0h-0.26v1.03h0.26c0.2,0,0.39-0.01,0.56-0.02
				c0.17-0.01,0.32-0.03,0.46-0.05l-0.04,0.62H17.31z M16.52,9.58L16.52,9.58c-0.12-0.03-0.23-0.06-0.34-0.08
				c-0.11-0.02-0.22-0.03-0.35-0.03c-0.16,0-0.29,0.02-0.4,0.07c-0.11,0.05-0.16,0.12-0.16,0.21c0,0.1,0.04,0.19,0.13,0.26
				c0.09,0.08,0.22,0.16,0.4,0.26l0.02,0.01c0.15,0.09,0.28,0.16,0.39,0.22c0.11,0.06,0.21,0.14,0.3,0.23
				c0.1,0.09,0.18,0.2,0.23,0.33c0.06,0.13,0.09,0.27,0.09,0.42c0,0.15-0.03,0.29-0.09,0.42c-0.06,0.13-0.14,0.24-0.25,0.33
				c-0.23,0.19-0.53,0.29-0.9,0.29c-0.19,0-0.37-0.02-0.54-0.05c-0.17-0.04-0.31-0.08-0.45-0.12l-0.01,0v-0.64
				c0.19,0.06,0.35,0.11,0.5,0.15c0.14,0.03,0.29,0.05,0.44,0.05c0.16,0,0.3-0.03,0.4-0.08s0.16-0.14,0.16-0.25
				c0-0.11-0.05-0.2-0.15-0.29c-0.1-0.08-0.25-0.19-0.46-0.31c-0.1-0.05-0.16-0.09-0.19-0.11c-0.11-0.07-0.21-0.14-0.3-0.2
				c-0.09-0.07-0.17-0.14-0.24-0.23c-0.07-0.08-0.13-0.18-0.17-0.28c-0.04-0.1-0.06-0.22-0.06-0.34c0-0.3,0.11-0.53,0.34-0.71
				c0.23-0.18,0.53-0.26,0.91-0.26c0.13,0,0.25,0.01,0.35,0.02c0.1,0.01,0.2,0.03,0.32,0.06c0.05,0.01,0.07,0.01,0.07,0.01V9.58z
				 M12.3,10.47L12.3,10.47c0.08,0.01,0.13,0.01,0.16,0.01c0.23,0,0.42-0.05,0.57-0.16c0.15-0.11,0.23-0.24,0.23-0.4
				c0-0.15-0.05-0.27-0.15-0.36c-0.1-0.08-0.24-0.13-0.4-0.13c-0.1,0-0.22,0.01-0.37,0.02c-0.02,0-0.03,0-0.04,0V10.47z
				 M11.53,12.45c0.01-0.16,0.02-0.3,0.02-0.43c0-0.13,0.01-0.29,0.01-0.47V9.93c0-0.19-0.01-0.37-0.02-0.53
				c-0.02-0.16-0.04-0.32-0.07-0.46h0.3c0.09,0,0.22-0.01,0.38-0.01c0.06-0.01,0.1-0.01,0.13-0.01c0.19-0.02,0.35-0.02,0.5-0.02
				c0.39,0,0.69,0.09,0.91,0.27C13.89,9.33,14,9.58,14,9.91c0,0.14-0.03,0.26-0.08,0.37c-0.05,0.11-0.12,0.2-0.21,0.28
				c-0.08,0.08-0.17,0.14-0.26,0.18c-0.09,0.05-0.17,0.08-0.25,0.1c0.11,0.19,0.21,0.36,0.29,0.5c0.09,0.14,0.17,0.27,0.26,0.38
				c0.08,0.12,0.17,0.23,0.26,0.34c0.09,0.11,0.21,0.23,0.34,0.37h-0.93c-0.13-0.15-0.26-0.32-0.38-0.5
				c-0.12-0.19-0.25-0.43-0.41-0.72c-0.08-0.14-0.13-0.23-0.16-0.29l-0.19,0.01v0.58c0,0.12,0,0.26,0.01,0.41
				c0,0.15,0.01,0.31,0.02,0.49v0.01H11.53z M8.73,11.13c0.04,0.16,0.1,0.29,0.19,0.41C9,11.66,9.09,11.75,9.2,11.82
				c0.11,0.07,0.23,0.1,0.35,0.1c0.13,0,0.25-0.03,0.36-0.1c0.11-0.07,0.2-0.16,0.28-0.28c0.08-0.12,0.14-0.26,0.18-0.41
				c0.04-0.16,0.06-0.32,0.06-0.49c0-0.35-0.08-0.63-0.23-0.85c-0.16-0.21-0.37-0.32-0.64-0.32c-0.28,0-0.5,0.11-0.66,0.32
				c-0.15,0.21-0.23,0.5-0.23,0.84C8.67,10.81,8.69,10.98,8.73,11.13 M8.91,12.39c-0.2-0.1-0.37-0.23-0.52-0.41
				c-0.15-0.17-0.26-0.38-0.34-0.61c-0.08-0.23-0.12-0.48-0.12-0.74c0-0.26,0.04-0.5,0.11-0.72C8.12,9.69,8.23,9.5,8.37,9.35
				c0.14-0.16,0.31-0.28,0.52-0.37c0.2-0.09,0.42-0.13,0.67-0.13c0.24,0,0.46,0.04,0.66,0.13c0.2,0.09,0.37,0.21,0.51,0.37
				c0.14,0.16,0.25,0.35,0.33,0.57c0.08,0.22,0.11,0.45,0.11,0.71c0,0.26-0.04,0.5-0.12,0.73c-0.08,0.23-0.19,0.43-0.33,0.61
				c-0.14,0.17-0.31,0.31-0.51,0.41c-0.2,0.1-0.42,0.15-0.65,0.15C9.32,12.53,9.11,12.48,8.91,12.39 M5.48,11.82
				c0.1,0.03,0.21,0.04,0.32,0.04c0.36,0,0.63-0.08,0.81-0.24c0.18-0.16,0.27-0.42,0.27-0.77c0-0.44-0.11-0.78-0.34-1.02
				c-0.1-0.11-0.22-0.19-0.36-0.24C6.04,9.53,5.9,9.5,5.74,9.5c-0.04,0-0.1,0-0.18,0.01l-0.08,0V11.82z M4.71,12.45
				c0.01-0.16,0.02-0.3,0.02-0.43c0-0.13,0-0.29,0-0.47V9.93c0-0.19-0.01-0.37-0.02-0.53C4.7,9.24,4.67,9.08,4.64,8.94h0.32
				c0.06,0,0.14-0.01,0.27-0.01c0.06-0.01,0.1-0.01,0.1-0.01C5.47,8.9,5.59,8.89,5.7,8.89c0.23,0,0.46,0.04,0.69,0.11
				c0.23,0.07,0.43,0.19,0.62,0.34c0.19,0.15,0.34,0.36,0.45,0.61c0.11,0.25,0.17,0.55,0.17,0.9c0,0.29-0.05,0.53-0.14,0.74
				C7.39,11.8,7.27,11.97,7.1,12.1c-0.16,0.13-0.34,0.22-0.55,0.28c-0.2,0.06-0.42,0.09-0.65,0.09c-0.14,0-0.28,0-0.42-0.01
				c-0.19-0.01-0.33-0.01-0.43-0.01H4.71z"/>
			<path class="st1" d="M10.39,8.41c0-0.05,0.01-0.1,0.01-0.15c0-0.05,0-0.09,0-0.12c0-0.08,0-0.2,0-0.37V6.64h-0.14
				c-0.06,0-0.13,0-0.22,0.01c-0.08,0-0.16,0.01-0.23,0.02l0.02-0.35h1.16c0.18,0,0.33-0.01,0.44-0.03l-0.02,0.35h-0.57v1.13
				c0,0.13,0,0.23,0,0.3c0,0.07,0,0.17,0.01,0.29l0,0.05H10.39z M9.08,8.41c0.01-0.09,0.01-0.18,0.01-0.26c0-0.08,0-0.17,0-0.28
				V7.05c0-0.14,0-0.28-0.01-0.39C9.07,6.54,9.06,6.43,9.04,6.32h0.51c0,0.04,0,0.12-0.01,0.23C9.54,6.7,9.53,6.82,9.53,6.91v0.76
				c0,0.1,0.01,0.22,0.02,0.35c0.01,0.14,0.03,0.26,0.04,0.38H9.08z M8.6,6.7L8.6,6.7C8.53,6.68,8.47,6.67,8.4,6.66
				C8.34,6.64,8.27,6.64,8.2,6.64c-0.09,0-0.17,0.01-0.24,0.04c-0.06,0.03-0.1,0.07-0.1,0.13c0,0.06,0.03,0.11,0.08,0.16
				C8,7.01,8.07,7.06,8.18,7.12l0.01,0.01c0.09,0.05,0.17,0.1,0.23,0.13C8.49,7.29,8.55,7.34,8.61,7.4c0.06,0.05,0.1,0.12,0.14,0.19
				C8.78,7.66,8.8,7.75,8.8,7.84c0,0.09-0.02,0.17-0.05,0.25C8.71,8.16,8.66,8.23,8.59,8.28C8.46,8.4,8.28,8.46,8.06,8.46
				c-0.11,0-0.22-0.01-0.32-0.03C7.64,8.4,7.55,8.38,7.48,8.35l-0.01,0V7.97c0.11,0.04,0.21,0.07,0.3,0.09
				c0.09,0.02,0.17,0.03,0.26,0.03c0.1,0,0.18-0.02,0.24-0.05c0.06-0.03,0.09-0.08,0.09-0.15c0-0.06-0.03-0.12-0.09-0.17
				C8.21,7.67,8.12,7.61,7.99,7.54C7.94,7.51,7.9,7.49,7.88,7.47C7.82,7.43,7.76,7.39,7.71,7.35c-0.05-0.04-0.1-0.08-0.14-0.13
				c-0.04-0.05-0.07-0.11-0.1-0.17c-0.03-0.06-0.04-0.13-0.04-0.2c0-0.18,0.07-0.32,0.2-0.42c0.13-0.1,0.31-0.16,0.54-0.16
				c0.08,0,0.15,0,0.2,0.01C8.43,6.29,8.49,6.3,8.56,6.32C8.59,6.32,8.6,6.33,8.6,6.33V6.7z M6.62,8.41
				c0.01-0.09,0.01-0.18,0.01-0.26c0-0.08,0-0.17,0-0.28V7.05c0-0.14,0-0.28-0.01-0.39C6.61,6.54,6.59,6.43,6.57,6.32h0.51
				c0,0.04,0,0.12-0.01,0.23C7.07,6.7,7.07,6.82,7.07,6.91v0.76c0,0.1,0.01,0.22,0.02,0.35C7.1,8.16,7.11,8.29,7.13,8.41H6.62z
				 M5.2,8.46C5.17,8.34,5.14,8.23,5.1,8.1C5.07,7.97,5.03,7.84,4.99,7.7L4.87,7.32C4.81,7.13,4.75,6.96,4.69,6.8
				C4.63,6.64,4.57,6.49,4.51,6.34L5,6.3c0.03,0.1,0.07,0.22,0.11,0.37c0.04,0.15,0.09,0.3,0.13,0.45c0.04,0.15,0.08,0.31,0.12,0.45
				C5.4,7.73,5.42,7.84,5.43,7.93h0.01l0.24-0.82c0.04-0.12,0.07-0.25,0.1-0.38C5.8,6.59,5.83,6.46,5.84,6.34L6.33,6.3
				C6.31,6.36,6.28,6.44,6.24,6.56C6.19,6.7,6.16,6.82,6.13,6.91C6.1,7.01,6.07,7.1,6.04,7.2L5.91,7.64
				C5.89,7.69,5.87,7.76,5.84,7.87C5.8,7.99,5.77,8.09,5.75,8.16C5.73,8.24,5.71,8.32,5.69,8.39L5.2,8.46z"/>
			<path class="st1" d="M22.59,15.28c-1.07-0.53-2.43-1.38-4.12-1.51c-2.37-0.18-5.17,0.78-7.62,0.62
				c-0.66-0.04-1.43-0.22-2.03-0.43c-0.59-0.21-1.25-0.7-1.7-0.71c-0.93-0.02-1.38,1.01-1.85,1.42c-0.37-0.01-0.63-0.13-0.85-0.28
				c0.19-0.35,0.65-0.6,1.04-0.9c0.49-0.38,0.92-0.85,1.66-0.95c1.78-0.24,2.58,1.36,4.07,1.51c1.14,0.11,2.34-0.29,3.5-0.52
				c1.16-0.23,2.38-0.47,3.55-0.47C20.17,13.05,21.65,14.04,22.59,15.28"/>
			<path class="st1" d="M22.92,15.89c-2.47-0.38-5.32-0.95-8.42-0.95c-1.77,0-3.72,0.15-5.54,0.24c-1.81,0.09-3.69,0.19-5.02-0.62
				c1.46,0.63,3.23,0.44,5.06,0.28C13.83,14.44,19.24,14.15,22.92,15.89"/>
			<path class="st1" d="M3.67,14.69c0.04-0.01,0.04,0.02,0.05,0.05c2.64,1.37,6.65,0.47,10.22,0.47c3.69,0,7.15,0.37,9.7,1.51
				c-2.75-0.38-5.91-1.08-9.61-1.04c-1.62,0.02-3.37,0.22-5.16,0.24C6.86,15.94,4.32,16.04,3.67,14.69"/>
		</g>
		<g>
			<path class="st1" d="M8.59,20.38H8.05v-1.47c0-0.16,0.01-0.33,0.02-0.53H8.05C8.03,18.53,8,18.64,7.98,18.71L7.4,20.38H6.95
				l-0.58-1.65c-0.02-0.04-0.04-0.16-0.08-0.34H6.27c0.01,0.24,0.02,0.45,0.02,0.64v1.36H5.8v-2.45h0.81l0.5,1.45
				c0.04,0.12,0.07,0.23,0.09,0.35h0.01c0.03-0.14,0.06-0.25,0.1-0.35l0.5-1.45h0.79V20.38z"/>
			<path class="st1" d="M10.62,20.38H9.15v-2.45h1.41v0.45H9.7v0.55h0.8v0.45H9.7v0.56h0.92V20.38z"/>
			<path class="st1" d="M13.81,20.38h-0.55v-1.47c0-0.16,0.01-0.33,0.02-0.53h-0.01c-0.03,0.15-0.05,0.26-0.08,0.32l-0.57,1.67
				h-0.45l-0.58-1.65c-0.02-0.04-0.04-0.16-0.08-0.34h-0.02c0.01,0.24,0.02,0.45,0.02,0.64v1.36h-0.5v-2.45h0.81l0.5,1.45
				c0.04,0.12,0.07,0.23,0.09,0.35h0.01c0.03-0.14,0.06-0.25,0.1-0.35l0.5-1.45h0.79V20.38z"/>
			<path class="st1" d="M14.37,20.38v-2.45h0.89c0.27,0,0.48,0.05,0.63,0.15c0.15,0.1,0.22,0.24,0.22,0.42
				c0,0.13-0.04,0.25-0.13,0.35c-0.09,0.1-0.2,0.17-0.34,0.21v0.01c0.17,0.02,0.31,0.09,0.42,0.19c0.1,0.11,0.16,0.24,0.16,0.39
				c0,0.22-0.08,0.4-0.24,0.53c-0.16,0.13-0.38,0.2-0.66,0.2H14.37z M14.92,18.33v0.58h0.24c0.11,0,0.2-0.03,0.27-0.08
				c0.07-0.06,0.1-0.13,0.1-0.23c0-0.18-0.13-0.27-0.4-0.27H14.92z M14.92,19.32v0.65h0.3c0.13,0,0.23-0.03,0.3-0.09
				c0.07-0.06,0.11-0.14,0.11-0.24c0-0.1-0.04-0.18-0.11-0.23c-0.07-0.06-0.17-0.08-0.3-0.08H14.92z"/>
			<path class="st1" d="M18.08,20.38h-1.47v-2.45h1.41v0.45h-0.86v0.55h0.8v0.45h-0.8v0.56h0.92V20.38z"/>
			<path class="st1" d="M20.53,20.38H19.9l-0.38-0.63c-0.03-0.05-0.06-0.09-0.08-0.13c-0.03-0.04-0.05-0.07-0.08-0.1
				c-0.03-0.03-0.05-0.05-0.08-0.06c-0.03-0.01-0.06-0.02-0.09-0.02h-0.15v0.94h-0.55v-2.45h0.88c0.6,0,0.89,0.22,0.89,0.67
				c0,0.09-0.01,0.16-0.04,0.24c-0.03,0.07-0.06,0.14-0.11,0.2c-0.05,0.06-0.11,0.11-0.17,0.15c-0.07,0.04-0.14,0.08-0.23,0.1v0.01
				c0.04,0.01,0.07,0.03,0.11,0.06c0.03,0.03,0.07,0.06,0.1,0.09c0.03,0.03,0.06,0.07,0.09,0.11c0.03,0.04,0.06,0.08,0.08,0.12
				L20.53,20.38z M19.03,18.34v0.68h0.24c0.12,0,0.21-0.03,0.29-0.1c0.07-0.07,0.11-0.16,0.11-0.26c0-0.21-0.13-0.32-0.38-0.32
				H19.03z"/>
		</g>
	</g>
</g>
</svg>
